<svg id="Capa_1" enable-background="new 0 0 512 512" height="512" viewBox="0 0 512 512" width="512" xmlns="http://www.w3.org/2000/svg"><path d="m49.107 221.406c-29.373-10.805-49.107-39.099-49.107-70.406 0-41.355 33.645-75 75-75v30c-24.813 0-45 20.187-45 45 0 18.788 11.841 35.768 29.464 42.251z" fill="#ff641a"/><path d="m512 196v150h-61.21c-15.17 20.99-35.6 39.44-59.79 53.98v66.02h-85.81l-10.91-32.73c-12.93 1.81-25.76 2.73-38.28 2.73-22.51 0-44.81-2.73-66.48-8.12l-12.71 38.12h-85.81v-87.6c-38.76-33.37-60-76.58-60-122.4 0-107.95 111.36-180 225-180 22.95 0 45.98 2.97 68.62 8.85 19.87-24.51 49.54-38.85 81.38-38.85h15v87.91c20.86 18.06 36.91 39.26 47.02 62.09z" fill="#ff641a"/><path d="m512 196v150h-61.21c-15.17 20.99-35.6 39.44-59.79 53.98v66.02h-85.81l-10.91-32.73c-12.93 1.81-25.76 2.73-38.28 2.73v-360c22.95 0 45.98 2.97 68.62 8.85 19.87-24.51 49.54-38.85 81.38-38.85h15v87.91c20.86 18.06 36.91 39.26 47.02 62.09z" fill="#e43500"/><path d="m361 196h30v30h-30z" fill="#5b5555"/><path d="m301 286c0 19.55-12.54 36.23-30 42.42v32.58h-30v-32.58c-17.46-6.19-30-22.87-30-42.42h30c0 8.27 6.73 15 15 15s15-6.73 15-15-6.73-15-15-15c-24.81 0-45-20.19-45-45 0-19.55 12.54-36.23 30-42.42v-32.58h30v32.58c17.46 6.19 30 22.87 30 42.42h-30c0-8.27-6.73-15-15-15s-15 6.73-15 15 6.73 15 15 15c24.81 0 45 20.19 45 45z" fill="#fdbf00"/><g fill="#ff9100"><path d="m301 286c0 19.55-12.54 36.23-30 42.42v32.58h-15v-60c8.27 0 15-6.73 15-15s-6.73-15-15-15v-30c24.81 0 45 20.19 45 45z"/><path d="m256 211v-60h15v32.58c17.46 6.19 30 22.87 30 42.42h-30c0-8.27-6.73-15-15-15z"/></g></svg>